<svg height="512pt" viewBox="-29 0 511 512" width="512pt" xmlns="http://www.w3.org/2000/svg"><path d="m444.648438 284.917969-217.078126 217.082031-217.078124-217.082031zm0 0" fill="#edf2fa"/><path d="m182.742188 458.382812-65.855469 43.617188-106.394531-217.082031zm0 0" fill="#d8d8e4"/><path d="m394.230469 284.917969c37.039062-70.875 25.796875-160.414063-33.742188-219.953125-73.410156-73.40625-192.425781-73.40625-265.835937 0-59.539063 59.539062-70.78125 149.078125-33.742188 219.953125zm0 0" fill="#ffc66c"/><path d="m453.890625 281.089844c-1.550781-3.734375-5.195313-6.171875-9.242187-6.171875h-34.679688c13.890625-33.0625 18.6875-70.007813 13.503906-105.667969-6.167968-42.4375-25.5-80.941406-55.90625-111.351562-.003906 0-.003906-.003907-.007812-.007813 0 0-.003906-.003906-.007813-.003906-77.1875-77.183594-202.78125-77.183594-279.972656.003906-30.40625 30.410156-49.742187 68.917969-55.910156 111.359375-5.183594 35.660156-.386719 72.605469 13.503906 105.667969h-34.679687c-4.046876 0-7.695313 2.4375-9.242188 6.171875-1.042969 2.523437-.972656 5.296875.050781 7.714844.050781.160156.117188.328124.207031.515624l106.398438 217.078126c1.265625 2.585937 3.582031 4.5 6.359375 5.25.863281.234374 1.742187.351562 2.621094.351562 1.945312 0 3.867187-.566406 5.523437-1.664062l59.765625-39.585938 38.320313 38.320312c1.875 1.875 4.417968 2.929688 7.074218 2.929688 2.652344 0 5.195313-1.054688 7.070313-2.929688l217.078125-217.078124c2.863281-2.863282 3.71875-7.164063 2.171875-10.902344zm-392.699219-146.828125 19.316406 19.316406-30.160156 30.160156-.363281-.363281c1.367187-16.777344 5.128906-33.316406 11.207031-49.113281zm33.660156-54.953125 29.960938 29.960937-30.160156 30.160157-24.605469-24.605469c6.691406-12.601563 14.972656-24.539063 24.804687-35.515625zm49.730469-38.882813 24.539063 24.539063-30.160156 30.160156-29.960938-29.957031c11.023438-9.859375 22.984375-18.109375 35.582031-24.742188zm68.753907-19.855469.089843.089844-30.160156 30.160156-19.1875-19.1875c15.902344-6.046874 32.503906-9.730468 49.257813-11.0625zm77.726562 11.0625-19.1875 19.1875-30.160156-30.160156.089844-.089844c16.753906 1.332032 33.355468 5.015626 49.257812 11.0625zm55.078125 33.535157-29.960937 29.957031-30.160157-30.160156 24.539063-24.535156c12.597656 6.628906 24.558594 14.878906 35.582031 24.738281zm38.953125 49.65625-24.605469 24.605469-30.164062-30.160157 29.964843-29.960937c9.832032 10.976562 18.113282 22.914062 24.804688 35.515625zm20.0625 68.550781-.363281.363281-30.160157-30.164062 19.316407-19.316407c6.078125 15.800782 9.839843 32.339844 11.207031 49.117188zm-11.273438 78.0625-19.25-19.25 30.160157-30.160156.339843.34375c-1.375 16.566406-5.101562 33.082031-11.25 49.066406zm-122.007812-122.007812-30.160156-30.160157 30.160156-30.160156 30.160156 30.160156zm44.304688-16.011719 30.164062 30.160156-30.164062 30.160156-30.160157-30.160156zm-58.449219 30.15625-30.160157 30.164062-30.160156-30.164062 30.160156-30.160157zm-30.160157-58.449219-30.160156-30.160156 30.160156-30.160156 30.160157 30.160156zm-14.144531 14.144531-30.160156 30.160157-30.160156-30.160157 30.160156-30.160156zm-44.304687 44.304688-30.160156 30.164062-30.160157-30.164062 30.160157-30.160157zm-44.308594 44.308593-30.160156 30.160157-30.160156-30.160157 30.160156-30.160156zm14.148438 14.144532 30.160156 30.160156-30.160156 30.160156-30.160157-30.160156zm14.144531-14.144532 30.160156-30.160156 30.160156 30.160156-30.160156 30.160157zm74.464843 14.144532 30.160157 30.160156-30.160157 30.160156-30.160156-30.160156zm14.144532-14.144532 30.160156-30.160156 30.160156 30.160156-30.160156 30.160157zm74.464844 14.144532 30.164062 30.160156-30.164062 30.160156-30.160157-30.160156zm14.148437-14.144532 30.160156-30.160156 30.160157 30.160156-30.160157 30.160157zm-279.980469 14.144532 30.160156 30.160156-19.25 19.25c-6.148437-15.984375-9.875-32.5-11.25-49.066406zm44.304688 44.304687 18.585937 18.585938h-37.167969zm88.613281 0 18.582031 18.585938h-37.167968zm88.609375 0 18.585938 18.585938h-37.167969zm88.613281 0 18.582031 18.585938h-37.167968zm-239.632812 231.039063-74.921875-152.863282 121.8125 121.808594zm106.714843.484375-192.933593-192.933594h385.867187zm0 0"/><path d="m328.914062 321.289062-53.257812 53.261719c-3.90625 3.90625-3.90625 10.238281 0 14.144531 1.953125 1.953126 4.511719 2.929688 7.070312 2.929688 2.558594 0 5.121094-.976562 7.074219-2.929688l53.257813-53.257812c3.90625-3.90625 3.90625-10.242188 0-14.148438-3.90625-3.902343-10.238282-3.902343-14.144532 0zm0 0"/><path d="m244.097656 406.109375-.445312.441406c-3.90625 3.90625-3.910156 10.238281-.007813 14.148438 1.953125 1.953125 4.515625 2.933593 7.074219 2.933593s5.117188-.976562 7.070312-2.925781l.445313-.445312c3.90625-3.902344 3.910156-10.234375.007813-14.144531-3.902344-3.90625-10.238282-3.910157-14.144532-.007813zm0 0"/></svg>